<svg xmlns="http://www.w3.org/2000/svg" xmlns:xlink="http://www.w3.org/1999/xlink" width="350" zoomAndPan="magnify" viewBox="0 0 262.5 149.999998" height="200" preserveAspectRatio="xMidYMid meet" version="1.0"><defs><clipPath id="edf0e5e4c8"><path d="M 85 61 L 172 61 L 172 113 L 85 113 Z M 85 61 " clip-rule="nonzero"/></clipPath><clipPath id="4e7e8c0aab"><path d="M 95.199219 53.34375 L 176.285156 67.695312 L 165.847656 126.664062 L 84.765625 112.3125 Z M 95.199219 53.34375 " clip-rule="nonzero"/></clipPath><clipPath id="a5e1e75725"><path d="M 95.199219 53.34375 L 176.285156 67.695312 L 165.847656 126.664062 L 84.765625 112.3125 Z M 95.199219 53.34375 " clip-rule="nonzero"/></clipPath><clipPath id="03a54cc21d"><path d="M 61.730469 27.34375 L 161.023438 27.34375 L 161.023438 126.632812 L 61.730469 126.632812 Z M 61.730469 27.34375 " clip-rule="nonzero"/></clipPath><clipPath id="16657509d8"><path d="M 111.378906 27.34375 C 83.960938 27.34375 61.730469 49.570312 61.730469 76.988281 C 61.730469 104.40625 83.960938 126.632812 111.378906 126.632812 C 138.796875 126.632812 161.023438 104.40625 161.023438 76.988281 C 161.023438 49.570312 138.796875 27.34375 111.378906 27.34375 Z M 111.378906 27.34375 " clip-rule="nonzero"/></clipPath><clipPath id="84804230b3"><path d="M 0.730469 0.34375 L 100.023438 0.34375 L 100.023438 99.632812 L 0.730469 99.632812 Z M 0.730469 0.34375 " clip-rule="nonzero"/></clipPath><clipPath id="2c33d791bc"><path d="M 50.378906 0.34375 C 22.960938 0.34375 0.730469 22.570312 0.730469 49.988281 C 0.730469 77.40625 22.960938 99.632812 50.378906 99.632812 C 77.796875 99.632812 100.023438 77.40625 100.023438 49.988281 C 100.023438 22.570312 77.796875 0.34375 50.378906 0.34375 Z M 50.378906 0.34375 " clip-rule="nonzero"/></clipPath><clipPath id="345ca759bb"><rect x="0" width="101" y="0" height="100"/></clipPath><clipPath id="0524f11830"><path d="M 38.289062 57.996094 L 106.925781 57.996094 L 106.925781 126.632812 L 38.289062 126.632812 Z M 38.289062 57.996094 " clip-rule="nonzero"/></clipPath><clipPath id="f3a2ac855d"><path d="M 72.609375 57.996094 C 53.65625 57.996094 38.289062 73.363281 38.289062 92.316406 C 38.289062 111.269531 53.65625 126.632812 72.609375 126.632812 C 91.5625 126.632812 106.925781 111.269531 106.925781 92.316406 C 106.925781 73.363281 91.5625 57.996094 72.609375 57.996094 Z M 72.609375 57.996094 " clip-rule="nonzero"/></clipPath><clipPath id="1eb0876168"><path d="M 0.289062 0.996094 L 68.925781 0.996094 L 68.925781 69.632812 L 0.289062 69.632812 Z M 0.289062 0.996094 " clip-rule="nonzero"/></clipPath><clipPath id="f23b136a0f"><path d="M 34.609375 0.996094 C 15.65625 0.996094 0.289062 16.363281 0.289062 35.316406 C 0.289062 54.269531 15.65625 69.632812 34.609375 69.632812 C 53.5625 69.632812 68.925781 54.269531 68.925781 35.316406 C 68.925781 16.363281 53.5625 0.996094 34.609375 0.996094 Z M 34.609375 0.996094 " clip-rule="nonzero"/></clipPath><clipPath id="46c1c92ee8"><rect x="0" width="69" y="0" height="70"/></clipPath><clipPath id="246c7bd725"><path d="M 122.550781 38.28125 L 191.1875 38.28125 L 191.1875 106.917969 L 122.550781 106.917969 Z M 122.550781 38.28125 " clip-rule="nonzero"/></clipPath><clipPath id="c5190cd4d6"><path d="M 156.871094 38.28125 C 137.917969 38.28125 122.550781 53.648438 122.550781 72.601562 C 122.550781 91.554688 137.917969 106.917969 156.871094 106.917969 C 175.824219 106.917969 191.1875 91.554688 191.1875 72.601562 C 191.1875 53.648438 175.824219 38.28125 156.871094 38.28125 Z M 156.871094 38.28125 " clip-rule="nonzero"/></clipPath><clipPath id="4fb49962c8"><path d="M 0.550781 0.28125 L 69.1875 0.28125 L 69.1875 68.917969 L 0.550781 68.917969 Z M 0.550781 0.28125 " clip-rule="nonzero"/></clipPath><clipPath id="c3f7f83764"><path d="M 34.871094 0.28125 C 15.917969 0.28125 0.550781 15.648438 0.550781 34.601562 C 0.550781 53.554688 15.917969 68.917969 34.871094 68.917969 C 53.824219 68.917969 69.1875 53.554688 69.1875 34.601562 C 69.1875 15.648438 53.824219 0.28125 34.871094 0.28125 Z M 34.871094 0.28125 " clip-rule="nonzero"/></clipPath><clipPath id="9a421a12ab"><rect x="0" width="70" y="0" height="69"/></clipPath><clipPath id="31b92605f7"><path d="M 158.667969 66.492188 L 223.710938 66.492188 L 223.710938 131.535156 L 158.667969 131.535156 Z M 158.667969 66.492188 " clip-rule="nonzero"/></clipPath><clipPath id="2915e26674"><path d="M 191.1875 66.492188 C 173.226562 66.492188 158.667969 81.054688 158.667969 99.015625 C 158.667969 116.976562 173.226562 131.535156 191.1875 131.535156 C 209.152344 131.535156 223.710938 116.976562 223.710938 99.015625 C 223.710938 81.054688 209.152344 66.492188 191.1875 66.492188 Z M 191.1875 66.492188 " clip-rule="nonzero"/></clipPath><clipPath id="c7408542ab"><path d="M 0.667969 0.492188 L 65.710938 0.492188 L 65.710938 65.535156 L 0.667969 65.535156 Z M 0.667969 0.492188 " clip-rule="nonzero"/></clipPath><clipPath id="dd3be6070f"><path d="M 33.1875 0.492188 C 15.226562 0.492188 0.667969 15.054688 0.667969 33.015625 C 0.667969 50.976562 15.226562 65.535156 33.1875 65.535156 C 51.152344 65.535156 65.710938 50.976562 65.710938 33.015625 C 65.710938 15.054688 51.152344 0.492188 33.1875 0.492188 Z M 33.1875 0.492188 " clip-rule="nonzero"/></clipPath><clipPath id="46eb425f01"><rect x="0" width="66" y="0" height="66"/></clipPath><clipPath id="ce0dd9740a"><path d="M 115.597656 66.492188 L 180.640625 66.492188 L 180.640625 131.535156 L 115.597656 131.535156 Z M 115.597656 66.492188 " clip-rule="nonzero"/></clipPath><clipPath id="a1a0bf4fa1"><path d="M 148.117188 66.492188 C 130.15625 66.492188 115.597656 81.054688 115.597656 99.015625 C 115.597656 116.976562 130.15625 131.535156 148.117188 131.535156 C 166.078125 131.535156 180.640625 116.976562 180.640625 99.015625 C 180.640625 81.054688 166.078125 66.492188 148.117188 66.492188 Z M 148.117188 66.492188 " clip-rule="nonzero"/></clipPath><clipPath id="c74f91c9d0"><path d="M 0.597656 0.492188 L 65.640625 0.492188 L 65.640625 65.535156 L 0.597656 65.535156 Z M 0.597656 0.492188 " clip-rule="nonzero"/></clipPath><clipPath id="39a84c3d42"><path d="M 33.117188 0.492188 C 15.15625 0.492188 0.597656 15.054688 0.597656 33.015625 C 0.597656 50.976562 15.15625 65.535156 33.117188 65.535156 C 51.078125 65.535156 65.640625 50.976562 65.640625 33.015625 C 65.640625 15.054688 51.078125 0.492188 33.117188 0.492188 Z M 33.117188 0.492188 " clip-rule="nonzero"/></clipPath><clipPath id="5fb2edffc1"><rect x="0" width="66" y="0" height="66"/></clipPath><clipPath id="188cb9af9c"><path d="M 29.816406 18.464844 L 231.933594 18.464844 L 231.933594 131.5 L 29.816406 131.5 Z M 29.816406 18.464844 " clip-rule="nonzero"/></clipPath><clipPath id="62802e4ae2"><path d="M 89 61 L 161 61 L 161 112 L 89 112 Z M 89 61 " clip-rule="nonzero"/></clipPath><clipPath id="7b1abf331d"><path d="M 90.75 59.71875 L 161.832031 61.925781 L 160.226562 113.554688 L 89.148438 111.34375 Z M 90.75 59.71875 " clip-rule="nonzero"/></clipPath><clipPath id="d94a9e3fe0"><path d="M 90.75 59.71875 L 161.832031 61.925781 L 160.226562 113.554688 L 89.148438 111.34375 Z M 90.75 59.71875 " clip-rule="nonzero"/></clipPath></defs><g clip-path="url(#edf0e5e4c8)"><g clip-path="url(#4e7e8c0aab)"><g clip-path="url(#a5e1e75725)"><path fill="#ffffff" d="M 170.621094 90.082031 L 144.242188 62.890625 C 143.355469 62.039062 142.039062 61.632812 140.773438 61.929688 C 139.511719 62.226562 138.628906 63.28125 138.390625 64.625 L 136.609375 74.707031 L 134.929688 74.410156 C 111.742188 70.308594 89.597656 85.792969 85.492188 108.976562 C 85.226562 110.488281 85.996094 112.011719 87.449219 112.617188 C 87.753906 112.84375 88.089844 112.902344 88.257812 112.933594 C 89.433594 113.140625 90.53125 112.816406 91.414062 111.757812 L 94.191406 108.785156 C 102.417969 99.496094 114.972656 95.136719 127.238281 97.304688 L 132.445312 98.226562 L 130.660156 108.308594 C 130.421875 109.652344 130.917969 110.777344 131.972656 111.660156 C 133.0625 112.371094 134.40625 112.609375 135.5625 111.949219 L 169.667969 95.457031 C 170.625 94.9375 171.308594 94.015625 171.488281 93.007812 C 171.664062 92 171.339844 90.902344 170.621094 90.082031 Z M 170.621094 90.082031 " fill-opacity="1" fill-rule="nonzero"/></g></g></g><g clip-path="url(#03a54cc21d)"><g clip-path="url(#16657509d8)"><g transform="matrix(1, 0, 0, 1, 61, 27)"><g clip-path="url(#345ca759bb)"><g clip-path="url(#84804230b3)"><g clip-path="url(#2c33d791bc)"><path fill="#1c1c1c" d="M 0.730469 0.34375 L 100.023438 0.34375 L 100.023438 99.632812 L 0.730469 99.632812 Z M 0.730469 0.34375 " fill-opacity="1" fill-rule="nonzero"/></g></g></g></g></g></g><g clip-path="url(#0524f11830)"><g clip-path="url(#f3a2ac855d)"><g transform="matrix(1, 0, 0, 1, 38, 57)"><g clip-path="url(#46c1c92ee8)"><g clip-path="url(#1eb0876168)"><g clip-path="url(#f23b136a0f)"><path fill="#1c1c1c" d="M 0.289062 0.996094 L 68.925781 0.996094 L 68.925781 69.632812 L 0.289062 69.632812 Z M 0.289062 0.996094 " fill-opacity="1" fill-rule="nonzero"/></g></g></g></g></g></g><g clip-path="url(#246c7bd725)"><g clip-path="url(#c5190cd4d6)"><g transform="matrix(1, 0, 0, 1, 122, 38)"><g clip-path="url(#9a421a12ab)"><g clip-path="url(#4fb49962c8)"><g clip-path="url(#c3f7f83764)"><path fill="#1c1c1c" d="M 0.550781 0.28125 L 69.1875 0.28125 L 69.1875 68.917969 L 0.550781 68.917969 Z M 0.550781 0.28125 " fill-opacity="1" fill-rule="nonzero"/></g></g></g></g></g></g><g clip-path="url(#31b92605f7)"><g clip-path="url(#2915e26674)"><g transform="matrix(1, 0, 0, 1, 158, 66)"><g clip-path="url(#46eb425f01)"><g clip-path="url(#c7408542ab)"><g clip-path="url(#dd3be6070f)"><path fill="#1c1c1c" d="M 0.667969 0.492188 L 65.710938 0.492188 L 65.710938 65.535156 L 0.667969 65.535156 Z M 0.667969 0.492188 " fill-opacity="1" fill-rule="nonzero"/></g></g></g></g></g></g><g clip-path="url(#ce0dd9740a)"><g clip-path="url(#a1a0bf4fa1)"><g transform="matrix(1, 0, 0, 1, 115, 66)"><g clip-path="url(#5fb2edffc1)"><g clip-path="url(#c74f91c9d0)"><g clip-path="url(#39a84c3d42)"><path fill="#1c1c1c" d="M 0.597656 0.492188 L 65.640625 0.492188 L 65.640625 65.535156 L 0.597656 65.535156 Z M 0.597656 0.492188 " fill-opacity="1" fill-rule="nonzero"/></g></g></g></g></g></g><g clip-path="url(#188cb9af9c)"><path fill="#ffffff" d="M 197.019531 121.945312 L 69.851562 121.945312 C 53.179688 121.945312 39.613281 109.128906 39.613281 93.375 C 39.613281 77.628906 53.179688 64.820312 69.851562 64.820312 C 70.632812 64.820312 71.484375 64.855469 72.457031 64.929688 C 73.832031 65.03125 75.191406 64.542969 76.183594 63.578125 C 77.171875 62.609375 77.699219 61.265625 77.628906 59.886719 C 77.601562 59.363281 77.585938 58.839844 77.585938 58.328125 C 77.585938 41.65625 91.9375 28.09375 109.578125 28.09375 C 122.332031 28.09375 133.851562 35.25 138.9375 46.320312 C 139.554688 47.667969 140.761719 48.65625 142.203125 48.996094 C 143.648438 49.335938 145.171875 48.988281 146.324219 48.058594 C 150.414062 44.765625 155.617188 42.949219 160.980469 42.949219 C 173.425781 42.949219 183.546875 52.488281 183.546875 64.214844 C 183.546875 65.464844 183.429688 66.730469 183.1875 67.980469 C 182.867188 69.640625 183.445312 71.34375 184.703125 72.472656 C 185.960938 73.597656 187.71875 73.984375 189.332031 73.484375 C 191.824219 72.710938 194.414062 72.320312 197.019531 72.320312 C 211.003906 72.320312 222.378906 83.449219 222.378906 97.132812 C 222.378906 110.8125 211.003906 121.945312 197.019531 121.945312 Z M 197.019531 62.699219 C 195.71875 62.699219 194.425781 62.769531 193.140625 62.910156 C 192.425781 46.484375 178.273438 33.328125 160.980469 33.328125 C 155.355469 33.328125 149.839844 34.757812 145 37.414062 C 137.492188 25.757812 124.136719 18.472656 109.578125 18.472656 C 87.722656 18.472656 69.746094 34.699219 68.09375 55.234375 C 46.929688 56.121094 29.996094 72.886719 29.996094 93.375 C 29.996094 114.433594 47.875 131.5625 69.851562 131.5625 L 197.019531 131.5625 C 216.308594 131.5625 232 116.117188 232 97.132812 C 232 78.148438 216.308594 62.699219 197.019531 62.699219 " fill-opacity="1" fill-rule="nonzero"/></g><g clip-path="url(#62802e4ae2)"><g clip-path="url(#7b1abf331d)"><g clip-path="url(#d94a9e3fe0)"><path fill="#ffffff" d="M 159.636719 81.71875 L 133.773438 61.789062 C 132.90625 61.175781 131.738281 60.992188 130.695312 61.402344 C 129.652344 61.808594 129.03125 62.820312 128.996094 63.996094 L 128.722656 72.816406 L 127.25 72.769531 C 106.96875 72.140625 89.992188 88.089844 89.363281 108.375 C 89.324219 109.695312 90.167969 110.898438 91.480469 111.234375 C 91.769531 111.390625 92.066406 111.398438 92.210938 111.40625 C 93.242188 111.4375 94.136719 111.023438 94.757812 110.011719 L 96.757812 107.132812 C 102.625 98.191406 112.796875 92.917969 123.523438 93.25 L 128.082031 93.394531 L 127.808594 102.210938 C 127.769531 103.386719 128.332031 104.289062 129.34375 104.90625 C 130.359375 105.382812 131.535156 105.417969 132.4375 104.710938 L 159.488281 86.425781 C 160.242188 85.859375 160.710938 84.992188 160.738281 84.109375 C 160.765625 83.226562 160.351562 82.332031 159.636719 81.71875 Z M 159.636719 81.71875 " fill-opacity="1" fill-rule="nonzero"/></g></g></g></svg>