<svg xmlns="http://www.w3.org/2000/svg" xmlns:xlink="http://www.w3.org/1999/xlink" width="350" zoomAndPan="magnify" viewBox="0 0 262.5 149.999998" height="200" preserveAspectRatio="xMidYMid meet" version="1.0"><defs><clipPath id="32f88cfe9c"><path d="M 57.164062 25.761719 L 204.878906 25.761719 L 204.878906 124.238281 L 57.164062 124.238281 Z M 57.164062 25.761719 " clip-rule="nonzero"/></clipPath><clipPath id="e2a2375fd2"><path d="M 63.898438 25.761719 L 198.101562 25.761719 C 199.886719 25.761719 201.601562 26.46875 202.867188 27.734375 C 204.128906 28.996094 204.839844 30.710938 204.839844 32.496094 L 204.839844 117.503906 C 204.839844 119.289062 204.128906 121.003906 202.867188 122.265625 C 201.601562 123.53125 199.886719 124.238281 198.101562 124.238281 L 63.898438 124.238281 C 62.113281 124.238281 60.398438 123.53125 59.136719 122.265625 C 57.871094 121.003906 57.164062 119.289062 57.164062 117.503906 L 57.164062 32.496094 C 57.164062 30.710938 57.871094 28.996094 59.136719 27.734375 C 60.398438 26.46875 62.113281 25.761719 63.898438 25.761719 Z M 63.898438 25.761719 " clip-rule="nonzero"/></clipPath><clipPath id="b2f9b358f8"><path d="M 0.164062 0.761719 L 147.878906 0.761719 L 147.878906 99.238281 L 0.164062 99.238281 Z M 0.164062 0.761719 " clip-rule="nonzero"/></clipPath><clipPath id="ee6459288e"><path d="M 6.898438 0.761719 L 141.101562 0.761719 C 142.886719 0.761719 144.601562 1.46875 145.867188 2.734375 C 147.128906 3.996094 147.839844 5.710938 147.839844 7.496094 L 147.839844 92.503906 C 147.839844 94.289062 147.128906 96.003906 145.867188 97.265625 C 144.601562 98.53125 142.886719 99.238281 141.101562 99.238281 L 6.898438 99.238281 C 5.113281 99.238281 3.398438 98.53125 2.136719 97.265625 C 0.871094 96.003906 0.164062 94.289062 0.164062 92.503906 L 0.164062 7.496094 C 0.164062 5.710938 0.871094 3.996094 2.136719 2.734375 C 3.398438 1.46875 5.113281 0.761719 6.898438 0.761719 Z M 6.898438 0.761719 " clip-rule="nonzero"/></clipPath><clipPath id="b43f97dd63"><rect x="0" width="148" y="0" height="100"/></clipPath><clipPath id="867f85a1d5"><path d="M 61.53125 29.621094 L 200.5 29.621094 L 200.5 120.378906 L 61.53125 120.378906 Z M 61.53125 29.621094 " clip-rule="nonzero"/></clipPath><clipPath id="99f14b7f4f"><path d="M 68.265625 29.621094 L 193.734375 29.621094 C 195.519531 29.621094 197.234375 30.332031 198.496094 31.59375 C 199.761719 32.859375 200.472656 34.574219 200.472656 36.359375 L 200.472656 113.640625 C 200.472656 115.425781 199.761719 117.140625 198.496094 118.40625 C 197.234375 119.667969 195.519531 120.378906 193.734375 120.378906 L 68.265625 120.378906 C 66.480469 120.378906 64.765625 119.667969 63.503906 118.40625 C 62.238281 117.140625 61.53125 115.425781 61.53125 113.640625 L 61.53125 36.359375 C 61.53125 34.574219 62.238281 32.859375 63.503906 31.59375 C 64.765625 30.332031 66.480469 29.621094 68.265625 29.621094 Z M 68.265625 29.621094 " clip-rule="nonzero"/></clipPath><clipPath id="31061361ad"><path d="M 0.53125 0.621094 L 139.5 0.621094 L 139.5 91.378906 L 0.53125 91.378906 Z M 0.53125 0.621094 " clip-rule="nonzero"/></clipPath><clipPath id="2e43d7e0c3"><path d="M 7.265625 0.621094 L 132.734375 0.621094 C 134.519531 0.621094 136.234375 1.332031 137.496094 2.59375 C 138.761719 3.859375 139.472656 5.574219 139.472656 7.359375 L 139.472656 84.640625 C 139.472656 86.425781 138.761719 88.140625 137.496094 89.40625 C 136.234375 90.667969 134.519531 91.378906 132.734375 91.378906 L 7.265625 91.378906 C 5.480469 91.378906 3.765625 90.667969 2.503906 89.40625 C 1.238281 88.140625 0.53125 86.425781 0.53125 84.640625 L 0.53125 7.359375 C 0.53125 5.574219 1.238281 3.859375 2.503906 2.59375 C 3.765625 1.332031 5.480469 0.621094 7.265625 0.621094 Z M 7.265625 0.621094 " clip-rule="nonzero"/></clipPath><clipPath id="aca36238dd"><rect x="0" width="140" y="0" height="92"/></clipPath><clipPath id="c4f6f3b2cb"><path d="M 132.824219 45.628906 L 197 45.628906 L 197 110 L 132.824219 110 Z M 132.824219 45.628906 " clip-rule="nonzero"/></clipPath><clipPath id="ec7b91d2dd"><path d="M 67.863281 95.851562 L 133.464844 95.851562 L 133.464844 113.417969 L 67.863281 113.417969 Z M 67.863281 95.851562 " clip-rule="nonzero"/></clipPath><clipPath id="0f2a4e4bb8"><path d="M 133.445312 95.851562 L 133.445312 109.03125 C 127.980469 109.03125 127.980469 113.417969 122.515625 113.417969 C 117.050781 113.417969 117.050781 109.03125 111.585938 109.03125 C 106.117188 109.03125 106.117188 113.417969 100.652344 113.417969 C 95.1875 113.417969 95.1875 109.03125 89.722656 109.03125 C 84.257812 109.03125 84.257812 113.417969 78.796875 113.417969 C 73.328125 113.417969 73.328125 109.03125 67.863281 109.03125 L 67.863281 95.851562 C 73.328125 95.851562 73.328125 100.242188 78.796875 100.242188 C 84.257812 100.242188 84.257812 95.851562 89.722656 95.851562 C 95.1875 95.851562 95.1875 100.242188 100.652344 100.242188 C 106.117188 100.242188 106.117188 95.851562 111.585938 95.851562 C 117.050781 95.851562 117.050781 100.242188 122.515625 100.242188 C 127.980469 100.242188 127.980469 95.851562 133.445312 95.851562 Z M 133.445312 95.851562 " clip-rule="nonzero"/></clipPath><clipPath id="0bb0c6a730"><path d="M 0.863281 0.851562 L 66.464844 0.851562 L 66.464844 18.417969 L 0.863281 18.417969 Z M 0.863281 0.851562 " clip-rule="nonzero"/></clipPath><clipPath id="59783b7c21"><path d="M 66.445312 0.851562 L 66.445312 14.03125 C 60.980469 14.03125 60.980469 18.417969 55.515625 18.417969 C 50.050781 18.417969 50.050781 14.03125 44.585938 14.03125 C 39.117188 14.03125 39.117188 18.417969 33.652344 18.417969 C 28.1875 18.417969 28.1875 14.03125 22.722656 14.03125 C 17.257812 14.03125 17.257812 18.417969 11.796875 18.417969 C 6.328125 18.417969 6.328125 14.03125 0.863281 14.03125 L 0.863281 0.851562 C 6.328125 0.851562 6.328125 5.242188 11.796875 5.242188 C 17.257812 5.242188 17.257812 0.851562 22.722656 0.851562 C 28.1875 0.851562 28.1875 5.242188 33.652344 5.242188 C 39.117188 5.242188 39.117188 0.851562 44.585938 0.851562 C 50.050781 0.851562 50.050781 5.242188 55.515625 5.242188 C 60.980469 5.242188 60.980469 0.851562 66.445312 0.851562 Z M 66.445312 0.851562 " clip-rule="nonzero"/></clipPath><clipPath id="fbb1e88807"><rect x="0" width="67" y="0" height="19"/></clipPath><clipPath id="cd8e05f5ea"><path d="M 70.402344 44.652344 L 132.832031 44.652344 L 132.832031 49.179688 L 70.402344 49.179688 Z M 70.402344 44.652344 " clip-rule="nonzero"/></clipPath><clipPath id="089c50b57a"><path d="M 72.664062 44.652344 L 130.5625 44.652344 C 131.8125 44.652344 132.824219 45.664062 132.824219 46.914062 C 132.824219 48.164062 131.8125 49.179688 130.5625 49.179688 L 72.664062 49.179688 C 71.414062 49.179688 70.402344 48.164062 70.402344 46.914062 C 70.402344 45.664062 71.414062 44.652344 72.664062 44.652344 Z M 72.664062 44.652344 " clip-rule="nonzero"/></clipPath><clipPath id="53829aabef"><path d="M 0.402344 0.652344 L 62.832031 0.652344 L 62.832031 5.179688 L 0.402344 5.179688 Z M 0.402344 0.652344 " clip-rule="nonzero"/></clipPath><clipPath id="a8d2662230"><path d="M 2.664062 0.652344 L 60.5625 0.652344 C 61.8125 0.652344 62.824219 1.664062 62.824219 2.914062 C 62.824219 4.164062 61.8125 5.179688 60.5625 5.179688 L 2.664062 5.179688 C 1.414062 5.179688 0.402344 4.164062 0.402344 2.914062 C 0.402344 1.664062 1.414062 0.652344 2.664062 0.652344 Z M 2.664062 0.652344 " clip-rule="nonzero"/></clipPath><clipPath id="cad6f5875e"><rect x="0" width="63" y="0" height="6"/></clipPath><clipPath id="16d8066955"><path d="M 70.402344 56.933594 L 111.574219 56.933594 L 111.574219 61.460938 L 70.402344 61.460938 Z M 70.402344 56.933594 " clip-rule="nonzero"/></clipPath><clipPath id="fd98905fb9"><path d="M 72.664062 56.933594 L 109.296875 56.933594 C 110.546875 56.933594 111.558594 57.945312 111.558594 59.195312 C 111.558594 60.445312 110.546875 61.460938 109.296875 61.460938 L 72.664062 61.460938 C 71.414062 61.460938 70.402344 60.445312 70.402344 59.195312 C 70.402344 57.945312 71.414062 56.933594 72.664062 56.933594 Z M 72.664062 56.933594 " clip-rule="nonzero"/></clipPath><clipPath id="5923f465c4"><path d="M 0.402344 0.933594 L 41.574219 0.933594 L 41.574219 5.460938 L 0.402344 5.460938 Z M 0.402344 0.933594 " clip-rule="nonzero"/></clipPath><clipPath id="68179144d0"><path d="M 2.664062 0.933594 L 39.296875 0.933594 C 40.546875 0.933594 41.558594 1.945312 41.558594 3.195312 C 41.558594 4.445312 40.546875 5.460938 39.296875 5.460938 L 2.664062 5.460938 C 1.414062 5.460938 0.402344 4.445312 0.402344 3.195312 C 0.402344 1.945312 1.414062 0.933594 2.664062 0.933594 Z M 2.664062 0.933594 " clip-rule="nonzero"/></clipPath><clipPath id="3ccfb7a2cb"><rect x="0" width="42" y="0" height="6"/></clipPath><clipPath id="02798b7f69"><path d="M 70.402344 69.003906 L 111.574219 69.003906 L 111.574219 73.53125 L 70.402344 73.53125 Z M 70.402344 69.003906 " clip-rule="nonzero"/></clipPath><clipPath id="59c2b70d0c"><path d="M 72.664062 69.003906 L 109.296875 69.003906 C 110.546875 69.003906 111.558594 70.019531 111.558594 71.269531 C 111.558594 72.519531 110.546875 73.53125 109.296875 73.53125 L 72.664062 73.53125 C 71.414062 73.53125 70.402344 72.519531 70.402344 71.269531 C 70.402344 70.019531 71.414062 69.003906 72.664062 69.003906 Z M 72.664062 69.003906 " clip-rule="nonzero"/></clipPath><clipPath id="4e40190fc3"><path d="M 0.402344 0.00390625 L 41.574219 0.00390625 L 41.574219 4.53125 L 0.402344 4.53125 Z M 0.402344 0.00390625 " clip-rule="nonzero"/></clipPath><clipPath id="a628885917"><path d="M 2.664062 0.00390625 L 39.296875 0.00390625 C 40.546875 0.00390625 41.558594 1.019531 41.558594 2.269531 C 41.558594 3.519531 40.546875 4.53125 39.296875 4.53125 L 2.664062 4.53125 C 1.414062 4.53125 0.402344 3.519531 0.402344 2.269531 C 0.402344 1.019531 1.414062 0.00390625 2.664062 0.00390625 Z M 2.664062 0.00390625 " clip-rule="nonzero"/></clipPath><clipPath id="43b950c51a"><rect x="0" width="42" y="0" height="5"/></clipPath></defs><g clip-path="url(#32f88cfe9c)"><g clip-path="url(#e2a2375fd2)"><g transform="matrix(1, 0, 0, 1, 57, 25)"><g clip-path="url(#b43f97dd63)"><g clip-path="url(#b2f9b358f8)"><g clip-path="url(#ee6459288e)"><path fill="#ffffff" d="M 0.164062 0.761719 L 147.878906 0.761719 L 147.878906 99.238281 L 0.164062 99.238281 Z M 0.164062 0.761719 " fill-opacity="1" fill-rule="nonzero"/></g></g></g></g></g></g><g clip-path="url(#867f85a1d5)"><g clip-path="url(#99f14b7f4f)"><g transform="matrix(1, 0, 0, 1, 61, 29)"><g clip-path="url(#aca36238dd)"><g clip-path="url(#31061361ad)"><g clip-path="url(#2e43d7e0c3)"><path fill="#1c1c1c" d="M 0.53125 0.621094 L 139.5 0.621094 L 139.5 91.378906 L 0.53125 91.378906 Z M 0.53125 0.621094 " fill-opacity="1" fill-rule="nonzero"/></g></g></g></g></g></g><g clip-path="url(#c4f6f3b2cb)"><path fill="#ffffff" d="M 132.824219 96.632812 L 132.824219 109.960938 L 146.152344 109.960938 L 185.480469 70.632812 L 172.152344 57.304688 Z M 195.75 60.363281 C 197.136719 58.976562 197.136719 56.71875 195.75 55.332031 L 187.453125 47.035156 C 186.066406 45.648438 183.808594 45.648438 182.421875 47.035156 L 175.917969 53.539062 L 189.246094 66.867188 Z M 195.75 60.363281 " fill-opacity="1" fill-rule="nonzero"/></g><g clip-path="url(#ec7b91d2dd)"><g clip-path="url(#0f2a4e4bb8)"><g transform="matrix(1, 0, 0, 1, 67, 95)"><g clip-path="url(#fbb1e88807)"><g clip-path="url(#0bb0c6a730)"><g clip-path="url(#59783b7c21)"><path fill="#ffffff" d="M 0.863281 0.851562 L 66.464844 0.851562 L 66.464844 18.417969 L 0.863281 18.417969 Z M 0.863281 0.851562 " fill-opacity="1" fill-rule="nonzero"/></g></g></g></g></g></g><g clip-path="url(#cd8e05f5ea)"><g clip-path="url(#089c50b57a)"><g transform="matrix(1, 0, 0, 1, 70, 44)"><g clip-path="url(#cad6f5875e)"><g clip-path="url(#53829aabef)"><g clip-path="url(#a8d2662230)"><path fill="#ffffff" d="M 0.402344 0.652344 L 62.832031 0.652344 L 62.832031 5.179688 L 0.402344 5.179688 Z M 0.402344 0.652344 " fill-opacity="1" fill-rule="nonzero"/></g></g></g></g></g></g><g clip-path="url(#16d8066955)"><g clip-path="url(#fd98905fb9)"><g transform="matrix(1, 0, 0, 1, 70, 56)"><g clip-path="url(#3ccfb7a2cb)"><g clip-path="url(#5923f465c4)"><g clip-path="url(#68179144d0)"><path fill="#ffffff" d="M 0.402344 0.933594 L 41.554688 0.933594 L 41.554688 5.460938 L 0.402344 5.460938 Z M 0.402344 0.933594 " fill-opacity="1" fill-rule="nonzero"/></g></g></g></g></g></g><g clip-path="url(#02798b7f69)"><g clip-path="url(#59c2b70d0c)"><g transform="matrix(1, 0, 0, 1, 70, 69)"><g clip-path="url(#43b950c51a)"><g clip-path="url(#4e40190fc3)"><g clip-path="url(#a628885917)"><path fill="#ffffff" d="M 0.402344 0.00390625 L 41.554688 0.00390625 L 41.554688 4.53125 L 0.402344 4.53125 Z M 0.402344 0.00390625 " fill-opacity="1" fill-rule="nonzero"/></g></g></g></g></g></g></svg>