<svg xmlns="http://www.w3.org/2000/svg" xmlns:xlink="http://www.w3.org/1999/xlink" width="350" zoomAndPan="magnify" viewBox="0 0 262.5 149.999998" height="200" preserveAspectRatio="xMidYMid meet" version="1.0"><defs><clipPath id="5e5f8810cb"><path d="M 114.542969 35.105469 L 237.121094 35.105469 L 237.121094 113.554688 L 114.542969 113.554688 Z M 114.542969 35.105469 " clip-rule="nonzero"/></clipPath><clipPath id="bee8f5f979"><path d="M 121.28125 35.105469 L 230.273438 35.105469 C 233.992188 35.105469 237.011719 38.121094 237.011719 41.839844 L 237.011719 106.816406 C 237.011719 110.539062 233.992188 113.554688 230.273438 113.554688 L 121.28125 113.554688 C 117.558594 113.554688 114.542969 110.539062 114.542969 106.816406 L 114.542969 41.839844 C 114.542969 38.121094 117.558594 35.105469 121.28125 35.105469 Z M 121.28125 35.105469 " clip-rule="nonzero"/></clipPath><clipPath id="18620e8689"><path d="M 0.542969 0.105469 L 123.121094 0.105469 L 123.121094 78.554688 L 0.542969 78.554688 Z M 0.542969 0.105469 " clip-rule="nonzero"/></clipPath><clipPath id="66fa0de053"><path d="M 7.28125 0.105469 L 116.273438 0.105469 C 119.992188 0.105469 123.011719 3.121094 123.011719 6.839844 L 123.011719 71.816406 C 123.011719 75.539062 119.992188 78.554688 116.273438 78.554688 L 7.28125 78.554688 C 3.558594 78.554688 0.542969 75.539062 0.542969 71.816406 L 0.542969 6.839844 C 0.542969 3.121094 3.558594 0.105469 7.28125 0.105469 Z M 7.28125 0.105469 " clip-rule="nonzero"/></clipPath><clipPath id="6dbaf5b393"><rect x="0" width="124" y="0" height="79"/></clipPath><clipPath id="bbbb3b23a0"><path d="M 110.398438 30.882812 L 241.398438 30.882812 L 241.398438 119.214844 L 110.398438 119.214844 Z M 110.398438 30.882812 " clip-rule="nonzero"/></clipPath><clipPath id="1709bcab3d"><path d="M 39.941406 90.5 L 104.441406 90.5 L 104.441406 100.535156 L 39.941406 100.535156 Z M 39.941406 90.5 " clip-rule="nonzero"/></clipPath><clipPath id="6a4728efff"><path d="M 44.960938 90.5 L 99.414062 90.5 C 100.746094 90.5 102.023438 91.027344 102.964844 91.96875 C 103.90625 92.910156 104.433594 94.1875 104.433594 95.519531 C 104.433594 96.847656 103.90625 98.125 102.964844 99.066406 C 102.023438 100.007812 100.746094 100.535156 99.414062 100.535156 L 44.960938 100.535156 C 43.628906 100.535156 42.355469 100.007812 41.414062 99.066406 C 40.472656 98.125 39.941406 96.847656 39.941406 95.519531 C 39.941406 94.1875 40.472656 92.910156 41.414062 91.96875 C 42.355469 91.027344 43.628906 90.5 44.960938 90.5 Z M 44.960938 90.5 " clip-rule="nonzero"/></clipPath><clipPath id="7554b34f98"><path d="M 0.941406 0.5 L 65.441406 0.5 L 65.441406 10.535156 L 0.941406 10.535156 Z M 0.941406 0.5 " clip-rule="nonzero"/></clipPath><clipPath id="58a7319dbd"><path d="M 5.960938 0.5 L 60.414062 0.5 C 61.746094 0.5 63.023438 1.027344 63.964844 1.96875 C 64.90625 2.910156 65.433594 4.1875 65.433594 5.519531 C 65.433594 6.847656 64.90625 8.125 63.964844 9.066406 C 63.023438 10.007812 61.746094 10.535156 60.414062 10.535156 L 5.960938 10.535156 C 4.628906 10.535156 3.355469 10.007812 2.414062 9.066406 C 1.472656 8.125 0.941406 6.847656 0.941406 5.519531 C 0.941406 4.1875 1.472656 2.910156 2.414062 1.96875 C 3.355469 1.027344 4.628906 0.5 5.960938 0.5 Z M 5.960938 0.5 " clip-rule="nonzero"/></clipPath><clipPath id="69f514e29a"><rect x="0" width="66" y="0" height="11"/></clipPath><clipPath id="d68592883f"><path d="M 20.886719 69.980469 L 104.441406 69.980469 L 104.441406 80.019531 L 20.886719 80.019531 Z M 20.886719 69.980469 " clip-rule="nonzero"/></clipPath><clipPath id="c5f1450c93"><path d="M 25.90625 69.980469 L 99.414062 69.980469 C 100.746094 69.980469 102.023438 70.511719 102.964844 71.449219 C 103.90625 72.390625 104.433594 73.667969 104.433594 75 C 104.433594 76.332031 103.90625 77.609375 102.964844 78.550781 C 102.023438 79.488281 100.746094 80.019531 99.414062 80.019531 L 25.90625 80.019531 C 24.574219 80.019531 23.296875 79.488281 22.355469 78.550781 C 21.414062 77.609375 20.886719 76.332031 20.886719 75 C 20.886719 73.667969 21.414062 72.390625 22.355469 71.449219 C 23.296875 70.511719 24.574219 69.980469 25.90625 69.980469 Z M 25.90625 69.980469 " clip-rule="nonzero"/></clipPath><clipPath id="5af2995fde"><path d="M 0.886719 0.980469 L 84.441406 0.980469 L 84.441406 11.019531 L 0.886719 11.019531 Z M 0.886719 0.980469 " clip-rule="nonzero"/></clipPath><clipPath id="a4d745e1ba"><path d="M 5.90625 0.980469 L 79.414062 0.980469 C 80.746094 0.980469 82.023438 1.511719 82.964844 2.449219 C 83.90625 3.390625 84.433594 4.667969 84.433594 6 C 84.433594 7.332031 83.90625 8.609375 82.964844 9.550781 C 82.023438 10.488281 80.746094 11.019531 79.414062 11.019531 L 5.90625 11.019531 C 4.574219 11.019531 3.296875 10.488281 2.355469 9.550781 C 1.414062 8.609375 0.886719 7.332031 0.886719 6 C 0.886719 4.667969 1.414062 3.390625 2.355469 2.449219 C 3.296875 1.511719 4.574219 0.980469 5.90625 0.980469 Z M 5.90625 0.980469 " clip-rule="nonzero"/></clipPath><clipPath id="73f497f8a3"><rect x="0" width="85" y="0" height="12"/></clipPath><clipPath id="9e0b59df6e"><path d="M 58.363281 49.515625 L 104.433594 49.515625 L 104.433594 59.554688 L 58.363281 59.554688 Z M 58.363281 49.515625 " clip-rule="nonzero"/></clipPath><clipPath id="f5036c3f54"><path d="M 63.382812 49.515625 L 99.414062 49.515625 C 100.746094 49.515625 102.023438 50.046875 102.964844 50.988281 C 103.90625 51.929688 104.433594 53.203125 104.433594 54.535156 C 104.433594 55.867188 103.90625 57.144531 102.964844 58.085938 C 102.023438 59.027344 100.746094 59.554688 99.414062 59.554688 L 63.382812 59.554688 C 62.050781 59.554688 60.773438 59.027344 59.832031 58.085938 C 58.890625 57.144531 58.363281 55.867188 58.363281 54.535156 C 58.363281 53.203125 58.890625 51.929688 59.832031 50.988281 C 60.773438 50.046875 62.050781 49.515625 63.382812 49.515625 Z M 63.382812 49.515625 " clip-rule="nonzero"/></clipPath><clipPath id="e779f2748c"><path d="M 0.363281 0.515625 L 46.433594 0.515625 L 46.433594 10.554688 L 0.363281 10.554688 Z M 0.363281 0.515625 " clip-rule="nonzero"/></clipPath><clipPath id="00a117abf7"><path d="M 5.382812 0.515625 L 41.414062 0.515625 C 42.746094 0.515625 44.023438 1.046875 44.964844 1.988281 C 45.90625 2.929688 46.433594 4.203125 46.433594 5.535156 C 46.433594 6.867188 45.90625 8.144531 44.964844 9.085938 C 44.023438 10.027344 42.746094 10.554688 41.414062 10.554688 L 5.382812 10.554688 C 4.050781 10.554688 2.773438 10.027344 1.832031 9.085938 C 0.890625 8.144531 0.363281 6.867188 0.363281 5.535156 C 0.363281 4.203125 0.890625 2.929688 1.832031 1.988281 C 2.773438 1.046875 4.050781 0.515625 5.382812 0.515625 Z M 5.382812 0.515625 " clip-rule="nonzero"/></clipPath><clipPath id="01c7b034cc"><rect x="0" width="47" y="0" height="11"/></clipPath></defs><g clip-path="url(#5e5f8810cb)"><g clip-path="url(#bee8f5f979)"><g transform="matrix(1, 0, 0, 1, 114, 35)"><g clip-path="url(#6dbaf5b393)"><g clip-path="url(#18620e8689)"><g clip-path="url(#66fa0de053)"><path fill="#1c1c1c" d="M 0.542969 0.105469 L 123.121094 0.105469 L 123.121094 78.554688 L 0.542969 78.554688 Z M 0.542969 0.105469 " fill-opacity="1" fill-rule="nonzero"/></g></g></g></g></g></g><g clip-path="url(#bbbb3b23a0)"><path fill="#f2f2f2" d="M 221.292969 30.925781 L 130.503906 30.925781 C 129.203125 30.925781 127.910156 31.050781 126.632812 31.304688 C 125.355469 31.554688 124.117188 31.925781 122.910156 32.417969 C 121.707031 32.910156 120.5625 33.515625 119.472656 34.230469 C 118.386719 34.949219 117.378906 35.761719 116.453125 36.671875 C 116.40625 36.714844 116.351562 36.746094 116.308594 36.789062 C 116.265625 36.832031 116.265625 36.847656 116.238281 36.875 C 115.3125 37.804688 114.484375 38.816406 113.757812 39.90625 C 113.03125 41 112.414062 42.152344 111.914062 43.363281 C 111.414062 44.578125 111.035156 45.824219 110.78125 47.113281 C 110.527344 48.398438 110.398438 49.699219 110.398438 51.011719 L 110.398438 99.089844 C 110.398438 101.058594 110.683594 102.980469 111.25 104.863281 C 111.816406 106.746094 112.644531 108.507812 113.734375 110.144531 C 113.828125 110.363281 113.949219 110.566406 114.09375 110.753906 C 114.191406 110.871094 114.296875 110.980469 114.414062 111.078125 C 115.347656 112.332031 116.410156 113.460938 117.609375 114.46875 C 118.804688 115.472656 120.101562 116.328125 121.5 117.03125 C 122.894531 117.730469 124.355469 118.265625 125.875 118.625 C 127.398438 118.988281 128.941406 119.167969 130.503906 119.171875 L 221.292969 119.171875 C 221.953125 119.167969 222.609375 119.136719 223.261719 119.070312 C 223.917969 119.007812 224.566406 118.910156 225.214844 118.78125 C 225.859375 118.652344 226.496094 118.492188 227.125 118.300781 C 227.757812 118.109375 228.375 117.886719 228.984375 117.636719 C 229.589844 117.382812 230.183594 117.101562 230.765625 116.792969 C 231.34375 116.484375 231.910156 116.144531 232.457031 115.78125 C 233.003906 115.414062 233.53125 115.023438 234.039062 114.605469 C 234.550781 114.1875 235.035156 113.75 235.5 113.285156 C 235.96875 112.820312 236.410156 112.332031 236.828125 111.824219 C 237.246094 111.316406 237.636719 110.789062 238.003906 110.242188 C 238.367188 109.695312 238.707031 109.132812 239.015625 108.554688 C 239.328125 107.972656 239.609375 107.378906 239.863281 106.773438 C 240.113281 106.164062 240.335938 105.546875 240.527344 104.917969 C 240.71875 104.289062 240.878906 103.652344 241.007812 103.007812 C 241.136719 102.363281 241.234375 101.714844 241.300781 101.058594 C 241.367188 100.40625 241.398438 99.75 241.398438 99.089844 L 241.398438 51.011719 C 241.398438 50.351562 241.367188 49.695312 241.300781 49.042969 C 241.234375 48.386719 241.136719 47.738281 241.007812 47.09375 C 240.878906 46.449219 240.71875 45.8125 240.527344 45.183594 C 240.335938 44.554688 240.113281 43.933594 239.863281 43.328125 C 239.609375 42.71875 239.328125 42.125 239.019531 41.546875 C 238.707031 40.96875 238.371094 40.402344 238.003906 39.855469 C 237.636719 39.3125 237.246094 38.785156 236.828125 38.273438 C 236.410156 37.765625 235.96875 37.28125 235.503906 36.816406 C 235.039062 36.351562 234.550781 35.910156 234.042969 35.492188 C 233.53125 35.074219 233.003906 34.683594 232.457031 34.316406 C 231.910156 33.953125 231.347656 33.613281 230.765625 33.304688 C 230.1875 32.996094 229.589844 32.714844 228.984375 32.460938 C 228.375 32.210938 227.757812 31.988281 227.128906 31.796875 C 226.496094 31.605469 225.859375 31.445312 225.214844 31.316406 C 224.570312 31.1875 223.917969 31.089844 223.261719 31.023438 C 222.609375 30.960938 221.953125 30.925781 221.292969 30.925781 Z M 221.292969 36.671875 C 224.140625 36.671875 226.75 37.449219 229.128906 39.011719 L 179.117188 88.632812 C 178.902344 88.84375 178.671875 89.03125 178.421875 89.199219 C 178.171875 89.363281 177.90625 89.503906 177.628906 89.617188 C 177.351562 89.730469 177.066406 89.816406 176.773438 89.875 C 176.476562 89.933594 176.179688 89.960938 175.878906 89.960938 C 175.578125 89.960938 175.28125 89.933594 174.988281 89.875 C 174.691406 89.816406 174.40625 89.730469 174.128906 89.617188 C 173.851562 89.503906 173.589844 89.363281 173.335938 89.199219 C 173.085938 89.03125 172.855469 88.84375 172.640625 88.632812 L 122.644531 39.027344 C 125.027344 37.457031 127.648438 36.671875 130.503906 36.671875 Z M 117.265625 104.632812 C 116.519531 102.859375 116.148438 101.011719 116.148438 99.089844 L 116.148438 51.011719 C 116.144531 48.121094 116.945312 45.472656 118.550781 43.070312 L 152.695312 76.945312 Z M 130.503906 113.429688 C 128.640625 113.429688 126.84375 113.078125 125.117188 112.378906 C 123.390625 111.675781 121.859375 110.675781 120.527344 109.378906 L 156.804688 81.023438 L 168.597656 92.714844 C 169.078125 93.1875 169.597656 93.613281 170.164062 93.984375 C 170.726562 94.355469 171.320312 94.671875 171.945312 94.925781 C 172.570312 95.183594 173.214844 95.378906 173.875 95.507812 C 174.539062 95.636719 175.207031 95.703125 175.882812 95.703125 C 176.558594 95.703125 177.230469 95.636719 177.890625 95.507812 C 178.554688 95.378906 179.199219 95.183594 179.824219 94.925781 C 180.449219 94.671875 181.042969 94.355469 181.605469 93.984375 C 182.167969 93.613281 182.691406 93.1875 183.171875 92.714844 L 193.585938 82.375 L 229.746094 110.652344 C 228.523438 111.554688 227.1875 112.242188 225.742188 112.71875 C 224.296875 113.191406 222.8125 113.429688 221.292969 113.429688 Z M 235.648438 99.089844 C 235.648438 101.710938 234.972656 104.144531 233.625 106.390625 L 197.695312 78.296875 L 233.222656 43.046875 C 234.84375 45.453125 235.652344 48.109375 235.648438 51.011719 Z M 235.648438 99.089844 " fill-opacity="1" fill-rule="nonzero"/></g><g clip-path="url(#1709bcab3d)"><g clip-path="url(#6a4728efff)"><g transform="matrix(1, 0, 0, 1, 39, 90)"><g clip-path="url(#69f514e29a)"><g clip-path="url(#7554b34f98)"><g clip-path="url(#58a7319dbd)"><path fill="#ffffff" d="M 0.941406 0.5 L 65.441406 0.5 L 65.441406 10.535156 L 0.941406 10.535156 Z M 0.941406 0.5 " fill-opacity="1" fill-rule="nonzero"/></g></g></g></g></g></g><g clip-path="url(#d68592883f)"><g clip-path="url(#c5f1450c93)"><g transform="matrix(1, 0, 0, 1, 20, 69)"><g clip-path="url(#73f497f8a3)"><g clip-path="url(#5af2995fde)"><g clip-path="url(#a4d745e1ba)"><path fill="#ffffff" d="M 0.886719 0.980469 L 84.441406 0.980469 L 84.441406 11.019531 L 0.886719 11.019531 Z M 0.886719 0.980469 " fill-opacity="1" fill-rule="nonzero"/></g></g></g></g></g></g><g clip-path="url(#9e0b59df6e)"><g clip-path="url(#f5036c3f54)"><g transform="matrix(1, 0, 0, 1, 58, 49)"><g clip-path="url(#01c7b034cc)"><g clip-path="url(#e779f2748c)"><g clip-path="url(#00a117abf7)"><path fill="#ffffff" d="M 0.363281 0.515625 L 46.433594 0.515625 L 46.433594 10.554688 L 0.363281 10.554688 Z M 0.363281 0.515625 " fill-opacity="1" fill-rule="nonzero"/></g></g></g></g></g></g></svg>