<svg xmlns="http://www.w3.org/2000/svg" xmlns:xlink="http://www.w3.org/1999/xlink" width="350" zoomAndPan="magnify" viewBox="0 0 262.5 149.999998" height="200" preserveAspectRatio="xMidYMid meet" version="1.0"><defs><clipPath id="4ab70f52a4"><path d="M 70.964844 17.578125 L 200 17.578125 L 200 101.535156 L 70.964844 101.535156 Z M 70.964844 17.578125 " clip-rule="nonzero"/></clipPath><clipPath id="ffc30c5253"><path d="M 77.703125 17.578125 L 193.175781 17.578125 C 196.898438 17.578125 199.914062 20.59375 199.914062 24.3125 L 199.914062 94.800781 C 199.914062 98.519531 196.898438 101.535156 193.175781 101.535156 L 77.703125 101.535156 C 73.980469 101.535156 70.964844 98.519531 70.964844 94.800781 L 70.964844 24.3125 C 70.964844 20.59375 73.980469 17.578125 77.703125 17.578125 Z M 77.703125 17.578125 " clip-rule="nonzero"/></clipPath><clipPath id="9eb59a8827"><path d="M 0.964844 0.578125 L 130 0.578125 L 130 84.535156 L 0.964844 84.535156 Z M 0.964844 0.578125 " clip-rule="nonzero"/></clipPath><clipPath id="6edff8d973"><path d="M 7.703125 0.578125 L 123.175781 0.578125 C 126.898438 0.578125 129.914062 3.59375 129.914062 7.3125 L 129.914062 77.800781 C 129.914062 81.519531 126.898438 84.535156 123.175781 84.535156 L 7.703125 84.535156 C 3.980469 84.535156 0.964844 81.519531 0.964844 77.800781 L 0.964844 7.3125 C 0.964844 3.59375 3.980469 0.578125 7.703125 0.578125 Z M 7.703125 0.578125 " clip-rule="nonzero"/></clipPath><clipPath id="b7c3704d61"><rect x="0" width="130" y="0" height="85"/></clipPath><clipPath id="6d4d4e731a"><path d="M 149.195312 64.527344 L 180.558594 64.527344 L 180.558594 109.492188 L 149.195312 109.492188 Z M 149.195312 64.527344 " clip-rule="nonzero"/></clipPath><clipPath id="c3c5b3d883"><path d="M 155.933594 64.527344 L 173.820312 64.527344 C 177.542969 64.527344 180.558594 67.542969 180.558594 71.265625 L 180.558594 102.707031 C 180.558594 106.425781 177.542969 109.441406 173.820312 109.441406 L 155.933594 109.441406 C 152.210938 109.441406 149.195312 106.425781 149.195312 102.707031 L 149.195312 71.265625 C 149.195312 67.542969 152.210938 64.527344 155.933594 64.527344 Z M 155.933594 64.527344 " clip-rule="nonzero"/></clipPath><clipPath id="c3d2a6d701"><path d="M 0.195312 0.527344 L 31.558594 0.527344 L 31.558594 45.492188 L 0.195312 45.492188 Z M 0.195312 0.527344 " clip-rule="nonzero"/></clipPath><clipPath id="885f70280d"><path d="M 6.933594 0.527344 L 24.820312 0.527344 C 28.542969 0.527344 31.558594 3.542969 31.558594 7.265625 L 31.558594 38.707031 C 31.558594 42.425781 28.542969 45.441406 24.820312 45.441406 L 6.933594 45.441406 C 3.210938 45.441406 0.195312 42.425781 0.195312 38.707031 L 0.195312 7.265625 C 0.195312 3.542969 3.210938 0.527344 6.933594 0.527344 Z M 6.933594 0.527344 " clip-rule="nonzero"/></clipPath><clipPath id="64a1223cec"><rect x="0" width="32" y="0" height="46"/></clipPath><clipPath id="1bd68ccd98"><path d="M 71 17.882812 L 199.71875 17.882812 L 199.71875 105 L 71 105 Z M 71 17.882812 " clip-rule="nonzero"/></clipPath><clipPath id="b178b3bd63"><path d="M 70.964844 17.882812 L 154 17.882812 L 154 105 L 70.964844 105 Z M 70.964844 17.882812 " clip-rule="nonzero"/></clipPath><clipPath id="2325e8bfa7"><path d="M 148 84 L 182 84 L 182 119.691406 L 148 119.691406 Z M 148 84 " clip-rule="nonzero"/></clipPath><clipPath id="d984558fa3"><path d="M 53.964844 78.277344 L 98.878906 78.277344 L 98.878906 123.191406 L 53.964844 123.191406 Z M 53.964844 78.277344 " clip-rule="nonzero"/></clipPath><clipPath id="c709f3d0fa"><path d="M 76.421875 78.277344 C 64.019531 78.277344 53.964844 88.328125 53.964844 100.734375 C 53.964844 113.136719 64.019531 123.191406 76.421875 123.191406 C 88.824219 123.191406 98.878906 113.136719 98.878906 100.734375 C 98.878906 88.328125 88.824219 78.277344 76.421875 78.277344 Z M 76.421875 78.277344 " clip-rule="nonzero"/></clipPath><clipPath id="ead6312ddd"><path d="M 0.964844 0.277344 L 45.878906 0.277344 L 45.878906 45.191406 L 0.964844 45.191406 Z M 0.964844 0.277344 " clip-rule="nonzero"/></clipPath><clipPath id="b922dc86dc"><path d="M 23.421875 0.277344 C 11.019531 0.277344 0.964844 10.328125 0.964844 22.734375 C 0.964844 35.136719 11.019531 45.191406 23.421875 45.191406 C 35.824219 45.191406 45.878906 35.136719 45.878906 22.734375 C 45.878906 10.328125 35.824219 0.277344 23.421875 0.277344 Z M 23.421875 0.277344 " clip-rule="nonzero"/></clipPath><clipPath id="93c4f67995"><rect x="0" width="46" y="0" height="46"/></clipPath><clipPath id="ac1f1484c1"><path d="M 46.480469 68.898438 L 106.363281 68.898438 L 106.363281 128.785156 L 46.480469 128.785156 Z M 46.480469 68.898438 " clip-rule="nonzero"/></clipPath></defs><g clip-path="url(#4ab70f52a4)"><g clip-path="url(#ffc30c5253)"><g transform="matrix(1, 0, 0, 1, 70, 17)"><g clip-path="url(#b7c3704d61)"><g clip-path="url(#9eb59a8827)"><g clip-path="url(#6edff8d973)"><path fill="#1c1c1c" d="M 0.964844 0.578125 L 129.859375 0.578125 L 129.859375 84.535156 L 0.964844 84.535156 Z M 0.964844 0.578125 " fill-opacity="1" fill-rule="nonzero"/></g></g></g></g></g></g><g clip-path="url(#6d4d4e731a)"><g clip-path="url(#c3c5b3d883)"><g transform="matrix(1, 0, 0, 1, 149, 64)"><g clip-path="url(#64a1223cec)"><g clip-path="url(#c3d2a6d701)"><g clip-path="url(#885f70280d)"><path fill="#1c1c1c" d="M 0.195312 0.527344 L 31.558594 0.527344 L 31.558594 45.492188 L 0.195312 45.492188 Z M 0.195312 0.527344 " fill-opacity="1" fill-rule="nonzero"/></g></g></g></g></g></g><g clip-path="url(#1bd68ccd98)"><path fill="#ffffff" d="M 197.429688 104.59375 L 178.519531 104.59375 C 178.191406 104.59375 177.875 104.527344 177.570312 104.402344 C 177.269531 104.277344 177 104.097656 176.765625 103.867188 C 176.535156 103.632812 176.355469 103.363281 176.230469 103.0625 C 176.105469 102.757812 176.042969 102.441406 176.042969 102.113281 C 176.042969 101.785156 176.105469 101.46875 176.230469 101.164062 C 176.355469 100.859375 176.535156 100.589844 176.765625 100.359375 C 177 100.125 177.269531 99.949219 177.570312 99.820312 C 177.875 99.695312 178.191406 99.632812 178.519531 99.632812 L 194.949219 99.632812 L 194.949219 22.882812 L 73.683594 22.882812 C 73.355469 22.882812 73.039062 22.820312 72.734375 22.695312 C 72.429688 22.570312 72.164062 22.390625 71.929688 22.160156 C 71.699219 21.925781 71.519531 21.65625 71.394531 21.355469 C 71.265625 21.050781 71.203125 20.734375 71.203125 20.40625 C 71.203125 20.074219 71.265625 19.757812 71.394531 19.457031 C 71.519531 19.152344 71.699219 18.882812 71.929688 18.652344 C 72.164062 18.417969 72.429688 18.238281 72.734375 18.113281 C 73.039062 17.988281 73.355469 17.925781 73.683594 17.925781 L 197.429688 17.925781 C 197.757812 17.925781 198.074219 17.988281 198.378906 18.113281 C 198.679688 18.238281 198.949219 18.417969 199.179688 18.652344 C 199.414062 18.882812 199.59375 19.152344 199.71875 19.457031 C 199.84375 19.757812 199.90625 20.074219 199.90625 20.40625 L 199.90625 102.113281 C 199.90625 102.441406 199.84375 102.757812 199.71875 103.0625 C 199.59375 103.363281 199.414062 103.632812 199.179688 103.867188 C 198.949219 104.097656 198.679688 104.277344 198.378906 104.402344 C 198.074219 104.527344 197.757812 104.59375 197.429688 104.59375 Z M 197.429688 104.59375 " fill-opacity="1" fill-rule="nonzero"/></g><g clip-path="url(#b178b3bd63)"><path fill="#ffffff" d="M 150.78125 104.59375 L 73.445312 104.59375 C 73.117188 104.59375 72.800781 104.527344 72.496094 104.402344 C 72.191406 104.277344 71.925781 104.097656 71.691406 103.867188 C 71.460938 103.632812 71.28125 103.363281 71.15625 103.0625 C 71.027344 102.757812 70.964844 102.441406 70.964844 102.113281 L 70.964844 20.40625 C 70.964844 20.074219 71.027344 19.757812 71.15625 19.457031 C 71.28125 19.152344 71.460938 18.882812 71.691406 18.652344 C 71.925781 18.417969 72.191406 18.238281 72.496094 18.113281 C 72.800781 17.988281 73.117188 17.925781 73.445312 17.925781 C 73.773438 17.925781 74.089844 17.988281 74.394531 18.113281 C 74.699219 18.238281 74.964844 18.417969 75.199219 18.652344 C 75.429688 18.882812 75.609375 19.152344 75.738281 19.457031 C 75.863281 19.757812 75.925781 20.074219 75.925781 20.40625 L 75.925781 99.632812 L 150.78125 99.632812 C 151.109375 99.632812 151.425781 99.695312 151.730469 99.820312 C 152.03125 99.949219 152.300781 100.125 152.53125 100.359375 C 152.765625 100.589844 152.945312 100.859375 153.070312 101.164062 C 153.195312 101.46875 153.257812 101.785156 153.257812 102.113281 C 153.257812 102.441406 153.195312 102.757812 153.070312 103.0625 C 152.945312 103.363281 152.765625 103.632812 152.53125 103.867188 C 152.300781 104.097656 152.03125 104.277344 151.730469 104.402344 C 151.425781 104.527344 151.109375 104.59375 150.78125 104.59375 Z M 150.78125 104.59375 " fill-opacity="1" fill-rule="nonzero"/></g><g clip-path="url(#2325e8bfa7)"><path fill="#ffffff" d="M 178.644531 119.683594 C 177.984375 119.683594 177.414062 119.453125 176.9375 119 L 164.710938 107.347656 L 152.25 119.015625 C 151.890625 119.355469 151.464844 119.566406 150.980469 119.652344 C 150.492188 119.734375 150.023438 119.679688 149.570312 119.484375 C 149.113281 119.285156 148.753906 118.980469 148.480469 118.570312 C 148.210938 118.15625 148.074219 117.703125 148.074219 117.207031 L 148.074219 86.726562 C 148.074219 86.398438 148.136719 86.082031 148.265625 85.777344 C 148.390625 85.476562 148.570312 85.207031 148.800781 84.972656 C 149.035156 84.742188 149.300781 84.5625 149.605469 84.4375 C 149.910156 84.3125 150.226562 84.25 150.554688 84.25 C 150.882812 84.25 151.199219 84.3125 151.503906 84.4375 C 151.808594 84.5625 152.074219 84.742188 152.308594 84.972656 C 152.539062 85.207031 152.71875 85.476562 152.847656 85.777344 C 152.972656 86.082031 153.035156 86.398438 153.035156 86.726562 L 153.035156 111.484375 L 163.023438 102.125 C 163.253906 101.90625 163.515625 101.742188 163.8125 101.625 C 164.105469 101.507812 164.414062 101.453125 164.730469 101.453125 C 165.046875 101.453125 165.351562 101.515625 165.648438 101.632812 C 165.941406 101.75 166.203125 101.917969 166.433594 102.140625 L 176.164062 111.421875 L 176.164062 86.726562 C 176.164062 86.398438 176.226562 86.082031 176.351562 85.777344 C 176.476562 85.476562 176.65625 85.207031 176.890625 84.972656 C 177.121094 84.742188 177.390625 84.5625 177.695312 84.4375 C 178 84.3125 178.3125 84.25 178.644531 84.25 C 178.972656 84.25 179.289062 84.3125 179.59375 84.4375 C 179.894531 84.5625 180.164062 84.742188 180.398438 84.972656 C 180.628906 85.207031 180.808594 85.476562 180.933594 85.777344 C 181.058594 86.082031 181.121094 86.398438 181.121094 86.726562 L 181.121094 117.203125 C 181.121094 117.53125 181.058594 117.847656 180.933594 118.152344 C 180.808594 118.457031 180.628906 118.726562 180.398438 118.957031 C 180.164062 119.191406 179.894531 119.371094 179.59375 119.496094 C 179.289062 119.621094 178.972656 119.683594 178.644531 119.683594 Z M 178.644531 119.683594 " fill-opacity="1" fill-rule="nonzero"/></g><path fill="#ffffff" d="M 164.71875 94.34375 C 151.546875 94.34375 140.828125 83.628906 140.828125 70.453125 C 140.828125 57.277344 151.546875 46.5625 164.71875 46.5625 C 177.890625 46.5625 188.609375 57.28125 188.609375 70.453125 C 188.609375 83.625 177.902344 94.34375 164.71875 94.34375 Z M 164.71875 51.519531 C 164.097656 51.519531 163.480469 51.550781 162.863281 51.613281 C 162.246094 51.671875 161.632812 51.765625 161.023438 51.886719 C 160.417969 52.007812 159.816406 52.15625 159.222656 52.335938 C 158.628906 52.515625 158.046875 52.726562 157.472656 52.960938 C 156.902344 53.199219 156.339844 53.464844 155.792969 53.757812 C 155.246094 54.050781 154.714844 54.367188 154.199219 54.710938 C 153.683594 55.054688 153.1875 55.425781 152.707031 55.820312 C 152.230469 56.210938 151.769531 56.628906 151.332031 57.066406 C 150.894531 57.503906 150.476562 57.964844 150.082031 58.441406 C 149.691406 58.921875 149.320312 59.417969 148.976562 59.933594 C 148.632812 60.449219 148.3125 60.980469 148.023438 61.527344 C 147.730469 62.074219 147.464844 62.636719 147.226562 63.207031 C 146.988281 63.78125 146.78125 64.363281 146.601562 64.957031 C 146.421875 65.550781 146.269531 66.152344 146.148438 66.761719 C 146.027344 67.367188 145.9375 67.980469 145.878906 68.597656 C 145.816406 69.214844 145.785156 69.832031 145.785156 70.453125 C 145.785156 71.074219 145.816406 71.691406 145.878906 72.308594 C 145.9375 72.925781 146.027344 73.539062 146.148438 74.148438 C 146.269531 74.753906 146.421875 75.355469 146.601562 75.949219 C 146.78125 76.542969 146.988281 77.125 147.226562 77.699219 C 147.464844 78.269531 147.730469 78.832031 148.023438 79.378906 C 148.3125 79.925781 148.632812 80.457031 148.976562 80.972656 C 149.320312 81.488281 149.691406 81.984375 150.082031 82.464844 C 150.476562 82.941406 150.894531 83.402344 151.332031 83.839844 C 151.769531 84.277344 152.230469 84.695312 152.707031 85.089844 C 153.1875 85.480469 153.683594 85.851562 154.199219 86.195312 C 154.714844 86.539062 155.246094 86.859375 155.792969 87.148438 C 156.339844 87.441406 156.902344 87.707031 157.472656 87.945312 C 158.046875 88.183594 158.628906 88.390625 159.222656 88.570312 C 159.816406 88.75 160.417969 88.902344 161.023438 89.023438 C 161.632812 89.144531 162.246094 89.234375 162.863281 89.292969 C 163.480469 89.355469 164.097656 89.386719 164.71875 89.386719 C 165.339844 89.386719 165.957031 89.355469 166.574219 89.292969 C 167.191406 89.234375 167.804688 89.144531 168.410156 89.023438 C 169.019531 88.902344 169.621094 88.75 170.214844 88.570312 C 170.808594 88.390625 171.390625 88.183594 171.964844 87.945312 C 172.535156 87.707031 173.097656 87.441406 173.644531 87.148438 C 174.191406 86.859375 174.722656 86.539062 175.238281 86.195312 C 175.753906 85.851562 176.25 85.480469 176.730469 85.089844 C 177.207031 84.695312 177.667969 84.277344 178.105469 83.839844 C 178.542969 83.402344 178.960938 82.941406 179.351562 82.464844 C 179.746094 81.984375 180.117188 81.488281 180.460938 80.972656 C 180.804688 80.457031 181.121094 79.925781 181.414062 79.378906 C 181.707031 78.832031 181.972656 78.269531 182.210938 77.699219 C 182.445312 77.125 182.65625 76.542969 182.835938 75.949219 C 183.015625 75.355469 183.164062 74.753906 183.285156 74.148438 C 183.40625 73.539062 183.5 72.925781 183.558594 72.308594 C 183.621094 71.691406 183.652344 71.074219 183.652344 70.453125 C 183.648438 69.832031 183.617188 69.214844 183.558594 68.597656 C 183.496094 67.980469 183.40625 67.371094 183.28125 66.761719 C 183.160156 66.152344 183.011719 65.554688 182.832031 64.960938 C 182.648438 64.367188 182.441406 63.785156 182.203125 63.210938 C 181.964844 62.640625 181.699219 62.078125 181.410156 61.535156 C 181.117188 60.988281 180.796875 60.457031 180.453125 59.941406 C 180.109375 59.425781 179.738281 58.929688 179.347656 58.449219 C 178.953125 57.96875 178.539062 57.511719 178.097656 57.074219 C 177.660156 56.632812 177.203125 56.21875 176.722656 55.824219 C 176.242188 55.433594 175.746094 55.0625 175.230469 54.71875 C 174.714844 54.375 174.183594 54.054688 173.640625 53.761719 C 173.09375 53.472656 172.53125 53.207031 171.960938 52.96875 C 171.386719 52.730469 170.804688 52.523438 170.210938 52.339844 C 169.617188 52.160156 169.019531 52.011719 168.410156 51.890625 C 167.800781 51.765625 167.191406 51.675781 166.574219 51.613281 C 165.957031 51.554688 165.339844 51.523438 164.71875 51.519531 Z M 164.71875 51.519531 " fill-opacity="1" fill-rule="nonzero"/><path fill="#ffffff" d="M 150.554688 44.429688 L 87.082031 44.429688 C 86.753906 44.429688 86.4375 44.363281 86.132812 44.238281 C 85.832031 44.113281 85.5625 43.933594 85.332031 43.703125 C 85.097656 43.46875 84.917969 43.199219 84.792969 42.898438 C 84.667969 42.59375 84.605469 42.277344 84.605469 41.949219 C 84.605469 41.621094 84.667969 41.304688 84.792969 41 C 84.917969 40.695312 85.097656 40.425781 85.332031 40.195312 C 85.5625 39.960938 85.832031 39.785156 86.132812 39.65625 C 86.4375 39.53125 86.753906 39.46875 87.082031 39.46875 L 150.554688 39.46875 C 150.882812 39.46875 151.199219 39.53125 151.503906 39.65625 C 151.808594 39.785156 152.074219 39.960938 152.308594 40.195312 C 152.539062 40.425781 152.71875 40.695312 152.847656 41 C 152.972656 41.304688 153.035156 41.621094 153.035156 41.949219 C 153.035156 42.277344 152.972656 42.59375 152.847656 42.898438 C 152.71875 43.199219 152.539062 43.46875 152.308594 43.703125 C 152.074219 43.933594 151.808594 44.113281 151.503906 44.238281 C 151.199219 44.363281 150.882812 44.429688 150.554688 44.429688 Z M 150.554688 44.429688 " fill-opacity="1" fill-rule="nonzero"/><path fill="#ffffff" d="M 118.820312 59.535156 L 87.082031 59.535156 C 86.753906 59.535156 86.4375 59.472656 86.132812 59.34375 C 85.832031 59.21875 85.5625 59.039062 85.332031 58.808594 C 85.097656 58.574219 84.917969 58.308594 84.792969 58.003906 C 84.667969 57.699219 84.605469 57.382812 84.605469 57.054688 C 84.605469 56.726562 84.667969 56.410156 84.792969 56.105469 C 84.917969 55.800781 85.097656 55.535156 85.332031 55.300781 C 85.5625 55.066406 85.832031 54.890625 86.132812 54.761719 C 86.4375 54.636719 86.753906 54.574219 87.082031 54.574219 L 118.820312 54.574219 C 119.148438 54.574219 119.464844 54.636719 119.769531 54.761719 C 120.074219 54.890625 120.339844 55.066406 120.574219 55.300781 C 120.804688 55.535156 120.984375 55.800781 121.109375 56.105469 C 121.238281 56.410156 121.300781 56.726562 121.300781 57.054688 C 121.300781 57.382812 121.238281 57.699219 121.109375 58.003906 C 120.984375 58.308594 120.804688 58.574219 120.574219 58.808594 C 120.339844 59.039062 120.074219 59.21875 119.769531 59.34375 C 119.464844 59.472656 119.148438 59.535156 118.820312 59.535156 Z M 118.820312 59.535156 " fill-opacity="1" fill-rule="nonzero"/><path fill="#ffffff" d="M 118.820312 74.640625 L 87.082031 74.640625 C 86.753906 74.640625 86.4375 74.578125 86.132812 74.453125 C 85.832031 74.328125 85.5625 74.148438 85.332031 73.914062 C 85.097656 73.683594 84.917969 73.414062 84.792969 73.109375 C 84.667969 72.804688 84.605469 72.488281 84.605469 72.160156 C 84.605469 71.832031 84.667969 71.515625 84.792969 71.210938 C 84.917969 70.910156 85.097656 70.640625 85.332031 70.40625 C 85.5625 70.175781 85.832031 69.996094 86.132812 69.871094 C 86.4375 69.746094 86.753906 69.683594 87.082031 69.683594 L 118.820312 69.683594 C 119.148438 69.683594 119.464844 69.746094 119.769531 69.871094 C 120.074219 69.996094 120.339844 70.175781 120.574219 70.40625 C 120.804688 70.640625 120.984375 70.910156 121.109375 71.210938 C 121.238281 71.515625 121.300781 71.832031 121.300781 72.160156 C 121.300781 72.488281 121.238281 72.804688 121.109375 73.109375 C 120.984375 73.414062 120.804688 73.683594 120.574219 73.914062 C 120.339844 74.148438 120.074219 74.328125 119.769531 74.453125 C 119.464844 74.578125 119.148438 74.640625 118.820312 74.640625 Z M 118.820312 74.640625 " fill-opacity="1" fill-rule="nonzero"/><g clip-path="url(#d984558fa3)"><g clip-path="url(#c709f3d0fa)"><g transform="matrix(1, 0, 0, 1, 53, 78)"><g clip-path="url(#93c4f67995)"><g clip-path="url(#ead6312ddd)"><g clip-path="url(#b922dc86dc)"><path fill="#1c1c1c" d="M 0.964844 0.277344 L 45.878906 0.277344 L 45.878906 45.191406 L 0.964844 45.191406 Z M 0.964844 0.277344 " fill-opacity="1" fill-rule="nonzero"/></g></g></g></g></g></g><g clip-path="url(#ac1f1484c1)"><path fill="#ffffff" d="M 76.421875 111.191406 C 69.601562 111.191406 64.074219 105.664062 64.074219 98.839844 C 64.074219 92.019531 69.601562 86.492188 76.421875 86.492188 C 83.242188 86.492188 88.773438 92.019531 88.773438 98.839844 C 88.773438 105.664062 83.242188 111.191406 76.421875 111.191406 Z M 104.75 93.066406 L 99.21875 92.414062 C 98.71875 90.636719 98.011719 88.90625 97.089844 87.265625 L 100.535156 82.894531 C 101.109375 82.164062 101.046875 81.121094 100.390625 80.464844 L 94.796875 74.871094 C 94.140625 74.214844 93.097656 74.152344 92.367188 74.730469 L 88 78.175781 C 86.355469 77.253906 84.625 76.542969 82.851562 76.042969 L 82.195312 70.515625 C 82.085938 69.59375 81.304688 68.898438 80.375 68.898438 L 72.46875 68.898438 C 71.539062 68.898438 70.757812 69.59375 70.648438 70.515625 L 69.992188 76.042969 C 68.21875 76.542969 66.488281 77.253906 64.84375 78.175781 L 60.476562 74.730469 C 59.746094 74.152344 58.703125 74.214844 58.046875 74.871094 L 52.453125 80.464844 C 51.796875 81.121094 51.734375 82.164062 52.308594 82.894531 L 55.753906 87.265625 C 54.832031 88.90625 54.125 90.636719 53.625 92.414062 L 48.09375 93.066406 C 47.171875 93.175781 46.480469 93.957031 46.480469 94.886719 L 46.480469 102.796875 C 46.480469 103.726562 47.171875 104.507812 48.09375 104.617188 L 53.625 105.269531 C 54.125 107.046875 54.832031 108.777344 55.753906 110.417969 L 52.308594 114.789062 C 51.734375 115.519531 51.796875 116.5625 52.453125 117.21875 L 58.046875 122.8125 C 58.703125 123.46875 59.746094 123.527344 60.476562 122.953125 L 64.84375 119.507812 C 66.488281 120.429688 68.21875 121.140625 69.992188 121.640625 L 70.648438 127.167969 C 70.757812 128.089844 71.539062 128.785156 72.46875 128.785156 L 80.246094 128.785156 C 81.15625 128.785156 81.929688 128.113281 82.058594 127.210938 L 82.851562 121.640625 C 84.625 121.140625 86.355469 120.429688 88 119.507812 L 92.367188 122.953125 C 93.097656 123.527344 94.140625 123.46875 94.796875 122.8125 L 100.390625 117.21875 C 101.046875 116.5625 101.109375 115.519531 100.535156 114.789062 L 97.089844 110.417969 C 98.011719 108.777344 98.71875 107.046875 99.21875 105.269531 L 104.75 104.617188 C 105.671875 104.507812 106.363281 103.726562 106.363281 102.796875 L 106.363281 94.886719 C 106.363281 93.957031 105.671875 93.175781 104.75 93.066406 " fill-opacity="1" fill-rule="nonzero"/></g></svg>